<svg viewBox="0 0 807 453" xmlns="http://www.w3.org/2000/svg"><path transform="scale(.1)" d="m7970 2150c-500 59-1094 84-1412 35-90-12-243 21-240 53 8 23 6 43-5 61-53 7-83 41-92 80-173 61-466-98-543-179 273-385 529-826 578-1061 29-116-16-223-132-253-233-59-651 250-747 628-69 271-2 538 194 702-144 160-314 397-475 651-7-177-374-518-462-540-39-10-151 65-201 62 272-220 486-455 575-804 125-494-287-1352-1005-1533-494-125-1106 91-1261 702-120 475-91 1370-172 2340-471 108-1085 138-1550 20-736-185-1035-674-893-1236 86-339 258-492 266-521 17-68-73-80-92-44-39 73-173 235-247 526-201 795 387 1202 969 1349 388 98 1173 73 1542-20-28 313-26 713 22 973 41 206 79 340 166 362 48 12 92 3 100-26 8-33-6-41-30-36-14 3-29-1-40-11-52-46-106-195-118-310-26-264-49-619-12-970 534-112 1102-322 1559-619 138 10 372-120 440-105 116 29 406 392 377 508-12 48-367 392-487 661-63 128 24 109 68 100 218-48 452-236 508-459 25-97 20-201 3-298 200-275 400-551 509-666 209 131 368 216 628 211 48 56 109 100 186 119 145 37 286 11 301-48 34-136-286-217-273-265 15-58 681 38 1116-7 32-2 44 32 10 44-216 38-848 497-948 895-15 58-25 97-22 128 7 54 55 62 56 12 1-31 5-43 24-84 318-807 1184-928 1322-1027 34-24 15-112-60-100m-4015 294c-48-12-87-22-90-54 49-58 102-119 112-157 7-29-12-75-68-58s-85 51-119 104c-61-46-128-105-235-132-136-34-301 89-335 225-32 126-3 216 123 248 107 27 364-52 454-164 70 49 145 78 257 86-311 210-833 398-1394 534 61-892 51-1833 162-2270 138-543 626-842 1159-707 514 130 1111 828 937 1516-106 376-587 935-963 829m-602 96c-39-10-68-58-46-146 27-107 132-194 233-189 51 3 107 78 189 110 40 10 42 41 37 61-12 48-296 193-413 164m1326 1036c-15 4-27-11-21-25 64-144 366-517 384-512 19 5 17 97 0 165-50 196-270 348-363 372m765-2003c95-376 400-607 665-610 93 12 79 112 63 175-41 165-333 751-555 1015-126-114-234-338-173-580m1109 866c30 24 61 45 92 56-3 92-257 38-238-39 26-4 52-13 78-25 22-10 49-7 68 8"/></svg>
